<?xml version="1.0" encoding="UTF-8"?>
<!--Generator: Apple Native CoreSVG 326-->
<!DOCTYPE svg
PUBLIC "-//W3C//DTD SVG 1.1//EN"
       "http://www.w3.org/Graphics/SVG/1.1/DTD/svg11.dtd">
<svg version="1.1" xmlns="http://www.w3.org/2000/svg" xmlns:xlink="http://www.w3.org/1999/xlink" viewBox="0 0 17.5834 29.5031">
 <g>
  <rect height="29.5031" opacity="0" width="17.5834" x="0" y="0"/>
  <path d="M17.2172 7.17085L17.2172 1.80835C17.2172 1.1001 16.6509 0.64746 15.9674 0.784863L8.74688 2.34829C7.9229 2.53066 7.47832 2.98887 7.47832 3.7229L7.53032 19.7758C7.57632 20.5572 7.18945 21.085 6.48589 21.2304L4.16587 21.7138C1.34063 22.3018 0 23.7142 0 25.8626C0 28.0084 1.64224 29.5031 3.9876 29.5031C6.09551 29.5031 9.18648 27.9847 9.18648 23.84L9.18648 10.6547C9.18648 9.81929 9.37383 9.59912 10.1395 9.42993L16.4978 8.03775C16.9459 7.94429 17.2172 7.61338 17.2172 7.17085Z" fill="white"/>
 </g>
</svg>
